PathFileType	4	(X/Y/Z)	22_1_26_p0_0-126_filt_butterworth.trc
DataRate	CameraRate	NumFrames	NumMarkers	Units	OrigDataRate	OrigDataStartFrame	OrigNumFrames
58.0	58.0	7	27	m	58.0	94	126
Frame#	Time	RHip			RKnee			RAnkle			RBigToe			RSmallToe			RHeel			LHip			LKnee			LAnkle			LBigToe			LSmallToe			LHeel			Neck			Head			Nose			RShoulder			RElbow			RWrist			RThumb			RIndex			RPinky			LShoulder			LElbow			LWrist			LThumb			LIndex			LPinky			
		X1	Y1	Z1	X2	Y2	Z2	X3	Y3	Z3	X4	Y4	Z4	X5	Y5	Z5	X6	Y6	Z6	X7	Y7	Z7	X8	Y8	Z8	X9	Y9	Z9	X10	Y10	Z10	X11	Y11	Z11	X12	Y12	Z12	X13	Y13	Z13	X14	Y14	Z14	X15	Y15	Z15	X16	Y16	Z16	X17	Y17	Z17	X18	Y18	Z18	X19	Y19	Z19	X20	Y20	Z20	X21	Y21	Z21	X22	Y22	Z22	X23	Y23	Z23	X24	Y24	Z24	X25	Y25	Z25	X26	Y26	Z26	X27	Y27	Z27	
94	1.6206896551724137	0.26587844453402437	0.6129120456089011	0.9062919316111551	0.2967246639358171	0.7421630284356278	1.342906173207116	0.2976636269936337	0.9311340394460991	1.8296517326147141	0.22417576062441552	0.65410873197379	1.8606802245103784	0.31084966103434375	0.6911769301144575	1.862621131412273	0.2996374716948495	1.0172005868745695	1.8906218371373906	0.03730462906865579	0.648363564625914	0.9211563947064274	0.06744594483831759	0.7634799715323384	1.3750910907310974	0.10053233688094979	0.899437053056767	1.8093680977818873	0.10027983640731519	0.7029756538915175	1.8735931892902473	0.04996259503211744	0.7553785166853999	1.8795668148776097	0.14269903962021038	1.0659222774380521	1.9029083043969388	0.11666936036347507	0.5226036481328971	0.37034738582171106	0.11124638138317841	0.38123839677897114	0.15050321904550026	0.10080513616683168	0.3521971586088506	0.29396595857504093	0.2878981474803371	0.49794184358195803	0.43665044891073834	0.3795283599120646	0.5362093113610567	0.6848350574762206	0.32477495729115813	0.3302918278915236	0.7862427804973164	0.23698542218194601	0.15787311638899393	0.7992249246049129	0.22855556767130752	0.14619500012070274	0.8191961405123922	0.24644422515354059	0.1923264192912535	0.8590109750913666	-0.0359183032019493	0.5433655464889021	0.4383511391835491	-0.09601575796160412	0.6087154574643552	0.6907450357068144	-0.09036464021089201	0.4831780332921485	0.9317500796507567	-0.06905852376540236	0.4560347198422668	1.0332466385203245	-0.0842507257233005	0.46328407175130404	1.059592158170922	-0.10230159066779089	0.49119115336998154	1.066146342803088
95	1.637931034482759	0.2660978052875868	0.6131502762044541	0.9077159866536106	0.29685462483753344	0.7399163320438493	1.3423632937944565	0.29812765348120396	0.9316790438214356	1.8297204591898708	0.2240550019379573	0.6542954158109122	1.8607202172441153	0.3106660701466625	0.6970454988260849	1.8647651634505857	0.2974096168856891	1.011368829016094	1.8887690851542822	0.03762413669393433	0.6535776272253894	0.9208749628247883	0.06758920887644493	0.7634061512404136	1.3761900309024029	0.09929076786932993	0.8989227636380712	1.8092772818146254	0.1009006772198682	0.7032964109809471	1.8734229661850788	0.05097462335777472	0.7495658024965896	1.8775170340907834	0.1379434566770677	1.0601886345672435	1.9027427285404714	0.11639786872038563	0.5241023352930426	0.37021435517077084	0.11126263464446187	0.38139472384506157	0.15131450108457048	0.10206977759302019	0.352355116406051	0.29429077095970324	0.2860379840045733	0.4985400445742171	0.436727291650392	0.3776741378757918	0.5300744015505587	0.685140827665809	0.3263182117017595	0.33109859969429384	0.795681812761994	0.22567806458054884	0.15306663738263088	0.8214826580170669	0.2263305710258141	0.14504417080585863	0.8425398375780737	0.24996429686012117	0.20337887492614237	0.8849102049659601	-0.035912685915770376	0.5436172390858085	0.438408148264805	-0.09600217084113379	0.6090879787171393	0.6914034938780144	-0.08622014691799883	0.4791963427751076	0.9322845136344541	-0.06062335609060436	0.4381905775737576	1.0307311667634393	-0.07846044594071414	0.4580015211098244	1.059052608492873	-0.09341961555465048	0.4842646899260895	1.066081582263005
96	1.6551724137931034	0.2656733030552475	0.6128400496982402	0.9068397770623556	0.2964454759544108	0.7360208897583099	1.3393547082305173	0.2977489994879421	0.9321333731526646	1.8298352048042363	0.22420913576588125	0.6550542221129773	1.8608084534073035	0.3106371581402041	0.7015016769805151	1.8663830601315732	0.2963547131545713	1.0075320960481113	1.8880503640668123	0.03620082357628696	0.6571761731464639	0.9197201690303676	0.06744937644214498	0.7637533712348319	1.3769010825463133	0.09768919134610896	0.8983640692754519	1.809147447506241	0.10110636076293347	0.7032696522493647	1.8727334865559415	0.051766034276993916	0.7453648102304127	1.8760371899860877	0.13287413051601735	1.0526219098875527	1.9023416555714285	0.1163619869180586	0.5242632894949066	0.3702344487288276	0.11128540008947588	0.3815596318164482	0.1516735880005553	0.10379554885745858	0.3535747521178347	0.29414238153153877	0.28485940535887844	0.4991244995197762	0.4367493392839879	0.3754721651057241	0.5276235495939843	0.6862530398742535	0.32636072127550275	0.3380409130976858	0.8028404952292911	0.21813545828379005	0.1610536878256298	0.8431518514378504	0.22629430268312017	0.1514528703427368	0.8649131345972753	0.25397607055109966	0.22282157159482002	0.9086886419218357	-0.03598514861924648	0.5439080867863543	0.4383610767010637	-0.09612108015943108	0.6095654641395034	0.6923085968951201	-0.08198116112518776	0.478785673544982	0.9332596666618346	-0.04777067759500563	0.4238277093205501	1.027057647232324	-0.07019848322411897	0.4439795014332953	1.0569806107780912	-0.08515300063553294	0.48558396556974404	1.0665757822630744
97	1.6724137931034482	0.26447533708506865	0.6119920046642237	0.9038691965259021	0.29571325186909875	0.7317039551371823	1.3344530899912315	0.29697888515321325	0.9322969809588181	1.8299331125864826	0.22441729549749884	0.65585649903723	1.8609360393534067	0.3105120489671377	0.7031792259890676	1.867000125289202	0.29620277111133225	1.0068538682237227	1.8884380415957243	0.03386110439356679	0.6584620195324564	0.917828853090124	0.0671272700537206	0.7641290572352694	1.376081972140006	0.09654194463912577	0.8980847476366599	1.8091370997950582	0.1017091959563549	0.7033527121136238	1.8720531129054099	0.05204628135761029	0.743998686519915	1.8755295861251973	0.12955704195026285	1.0478861565918165	1.9008434847175462	0.11637624077521226	0.5240640577894273	0.3702977045548101	0.11130914839295042	0.3817123035501276	0.151731146420282	0.10607486556684545	0.3565118590760019	0.29356061758808344	0.28435915029674935	0.4995148112834956	0.43674245960962743	0.37385339007899293	0.5277557317181705	0.6883618903297967	0.3239893126582474	0.35179187207310136	0.8118225091638951	0.21137682063977514	0.18237605903180026	0.8655387377265045	0.22421770594574114	0.16731409533414016	0.8886439507457569	0.2569508210446726	0.24906127583940466	0.9303179859870501	-0.03601053922757507	0.5438794038757666	0.43836529351801035	-0.09621273180577636	0.6101407228970127	0.6934002381621824	-0.07696309712793527	0.48203748892143633	0.9340732121707395	-0.03146024359974864	0.4204303721315101	1.0230112007259793	-0.059438864720459866	0.42449822750358984	1.0533877311485633	-0.07736009235606488	0.4927102809445682	1.0672576843976604
98	1.6896551724137931	0.2632192065301292	0.6111083503548954	0.9008510377151453	0.2951216096856069	0.7289315773703082	1.3301075758499534	0.29648755384816666	0.9321887629557322	1.8299431564658395	0.22460234077253258	0.6566000998579852	1.861106084410673	0.31038159336157534	0.7033125218568086	1.8670446576842632	0.29573184148638926	1.0079459898344147	1.8887675803531743	0.03197161960031053	0.6583757579715138	0.9158820404610879	0.06674068172540105	0.7642645371578864	1.3742573015450636	0.09629127622784969	0.8983449743532594	1.8096799810816977	0.10319133214740217	0.7037919255412841	1.8727761571594468	0.05204904020166985	0.7443207758421804	1.8756676637921244	0.12803938891777264	1.0432975819624097	1.8978008359563558	0.11637621178894715	0.5239042026994553	0.37034497310916303	0.1113424021769839	0.38179076443287546	0.15169768341904094	0.10825621959570894	0.3603189596415228	0.2928111296886659	0.28432606267692484	0.4996563033314639	0.4367400091851895	0.372786127242402	0.5281190490409216	0.6910562224087532	0.3184372483230353	0.36731829425251905	0.8247751518077492	0.20279583771635054	0.20987348038966025	0.8900558293117474	0.2176824758729784	0.1922986256388113	0.9144244885645009	0.2581099474130531	0.27727127119502804	0.9502711525992276	-0.035742532815027137	0.5424919499444848	0.43849762606090614	-0.09622367849914233	0.6102258365303843	0.6943598297147553	-0.07047557995292121	0.490282913491966	0.9344680794688639	-0.01384329221127617	0.42957580333419043	1.0191736846850201	-0.04616363437699374	0.4111191084605266	1.0493942710662745	-0.06901522987908966	0.5033080349583907	1.067663237804734
99	1.706896551724138	0.2625444589166804	0.6115690364996772	0.8993583427885543	0.2949355952726913	0.7280666058921579	1.3297101372460927	0.29635285819573337	0.9319726636844331	1.8298946930827384	0.2250421527497633	0.6576076622022304	1.8613125410072535	0.31053474275652004	0.7034841227672991	1.8670416423351202	0.2943949934490509	1.0091935983599287	1.8887342171316186	0.030999366049891963	0.657827122857874	0.9144917456672133	0.06640050025337468	0.7644322586121517	1.3738963661192747	0.09674936226576332	0.8992579939832558	1.8111764366184628	0.10540330545483201	0.7043646835732991	1.8754744480466758	0.052199664842686705	0.7450833519100455	1.876331448372668	0.12669030729763192	1.0355614387348997	1.8946654249004373	0.11637699450895868	0.5237967346176453	0.3703362547888898	0.11139524726510439	0.3818001884914962	0.15167459853095744	0.10962927198818928	0.3631235089162749	0.2922678445135458	0.28451545643883674	0.49965288739365155	0.4367602766150962	0.37136544364064206	0.5273655888558253	0.693512531996469	0.3093042897959167	0.37742459201114786	0.8406129757466523	0.19293501764266335	0.23344806415666908	0.9145339003240546	0.20777213555424795	0.22020635878743253	0.9393893133282124	0.25635007992721176	0.29952051001305596	0.9690141569500887	-0.034989975501675416	0.5389548961479848	0.4386969360670646	-0.09605818248862541	0.6085440625631997	0.6942481504559229	-0.06270828515477543	0.5016480212974492	0.9345818569338779	0.0020700571059314686	0.4448306188317195	1.0156954017620656	-0.029750409991750104	0.41334631536905	1.0465574164986193	-0.05808331963046741	0.5136454193737274	1.0672377861874218
100	1.7241379310344829	0.2622479282992659	0.6147377548226017	0.8993114740232808	0.29496395830228794	0.7283338275598569	1.3346846927771592	0.29633878526155316	0.9317883625895733	1.8298714807857581	0.2257479670569786	0.6587520670004794	1.8614752554581016	0.3109717468241616	0.7039932496309602	1.8671136826722399	0.29277675269009834	1.0099751185593355	1.8889592884116158	0.030739213708977614	0.6572170508356208	0.9137337789054982	0.06642745999736747	0.7651269570063569	1.3767142205691008	0.09743013470312202	0.900532180828975	1.8132330003845127	0.10750132059815135	0.7044718783455014	1.8783438597882138	0.05267071131812699	0.7457950451551123	1.8776555191171127	0.12457294581656421	1.0274547198347954	1.8936346786280178	0.11639229819972764	0.52364326088876	0.3702299026993779	0.1114652840761346	0.381801090897842	0.1516804704339199	0.11009671140523743	0.36417487317233127	0.2920621106816902	0.2846257058054232	0.4996062212156312	0.43680250476893734	0.3693822683713348	0.5259674597557737	0.6954715128207075	0.2972296205957137	0.37975020947182836	0.8562369053573509	0.1839939118683664	0.25087529902250416	0.9346477269550413	0.19756661638143636	0.2423969230682164	0.9605841984300139	0.25080671135985777	0.31100274922085686	0.9870690976004176	-0.03396013737465398	0.5343263788560256	0.4387394764936432	-0.0957239716692959	0.6044170636087801	0.6928073496119114	-0.05405567584990377	0.5096127333925471	0.934589861868128	0.014029131267115217	0.45561385475087934	1.0124138815589843	-0.0114816216654915	0.428669982206003	1.0454195707339042	-0.043491898673438764	0.5174771361141328	1.0656140225825677
